<?xml version="1.0" encoding="utf-8"?>
<!-- Generator: Adobe Illustrator 17.0.0, SVG Export Plug-In . SVG Version: 6.00 Build 0)  -->
<!DOCTYPE svg PUBLIC "-//W3C//DTD SVG 1.1//EN" "http://www.w3.org/Graphics/SVG/1.1/DTD/svg11.dtd">
<svg version="1.1" id="Слой_1" xmlns="http://www.w3.org/2000/svg" xmlns:xlink="http://www.w3.org/1999/xlink" x="0px" y="0px"
	 width="639.361px" height="250.857px" viewBox="0 0 639.361 250.857" enable-background="new 0 0 639.361 250.857"
	 xml:space="preserve">
<g>
	<defs>
		<rect id="SVGID_1_" width="639.361" height="250.857"/>
	</defs>
	<clipPath id="SVGID_2_">
		<use xlink:href="#SVGID_1_"  overflow="visible"/>
	</clipPath>
	<path clip-path="url(#SVGID_2_)" fill="#292929" d="M201.189,125.428c30.159-22.927,49.669-59.172,49.669-99.897
		c0-14.1-11.432-25.532-25.532-25.532s-25.532,11.432-25.532,25.532c0,41.003-33.361,74.365-74.365,74.365
		c-41.003,0-74.365-33.362-74.365-74.365c0-14.1-11.432-25.532-25.532-25.532C11.432-0.001,0,11.431,0,25.531
		c0,40.725,19.51,76.97,49.669,99.897C19.51,148.355,0,184.6,0,225.324c0,14.101,11.432,25.533,25.532,25.533
		c14.1,0,25.532-11.432,25.532-25.533c0-41.002,33.362-74.364,74.365-74.364c41.004,0,74.365,33.362,74.365,74.364
		c0,14.101,11.432,25.533,25.532,25.533s25.532-11.432,25.532-25.533C250.858,184.6,231.348,148.355,201.189,125.428"/>
	<polygon clip-path="url(#SVGID_2_)" fill="#292929" points="313.603,107.086 293.209,88.154 293.209,107.086 289.361,107.086 
		289.361,68.607 293.209,68.607 293.209,86.077 312.679,68.607 318.066,68.607 297.365,87.077 318.836,107.086 	"/>
	<path clip-path="url(#SVGID_2_)" fill="#292929" d="M373.887,83.152v23.934h-3.925V83.152c0-7.08-4.079-11.698-11.312-11.698
		c-7.543,0-13.468,4.926-13.468,15.315v20.317h-3.848V51.204h3.848v24.714c2.924-5.695,7.849-8.158,13.775-8.158
		C368.115,67.76,373.887,73.84,373.887,83.152"/>
	<path clip-path="url(#SVGID_2_)" fill="#292929" d="M396.383,87.847c0-11.39,9.004-20.086,20.24-20.086
		c11.159,0,20.163,8.696,20.163,20.086c0,11.39-9.004,20.086-20.163,20.086C405.387,107.933,396.383,99.237,396.383,87.847
		 M432.861,87.847c0-9.158-7.08-16.392-16.238-16.392c-9.158,0-16.315,7.234-16.315,16.392c0,9.158,7.157,16.392,16.315,16.392
		C425.781,104.239,432.861,97.005,432.861,87.847"/>
	<path clip-path="url(#SVGID_2_)" fill="#292929" d="M499.608,87.847c0,11.39-8.927,20.086-19.932,20.086
		c-7.465,0-13.391-3.848-16.546-9.773v8.926h-3.848V51.204h3.848v26.33c3.155-5.925,9.081-9.773,16.546-9.773
		C490.681,67.761,499.608,76.457,499.608,87.847 M495.76,87.847c0-9.158-7.157-16.392-16.315-16.392
		c-9.158,0-16.315,7.234-16.315,16.392c0,9.158,7.157,16.392,16.315,16.392C488.603,104.239,495.76,97.005,495.76,87.847"/>
	<polygon clip-path="url(#SVGID_2_)" fill="#292929" points="551.349,103.315 551.349,107.086 522.105,107.086 522.105,104.546 
		545.193,72.378 522.875,72.378 522.875,68.607 550.58,68.607 550.58,71.147 527.569,103.315 	"/>
	<path clip-path="url(#SVGID_2_)" fill="#292929" d="M612.785,88.001c0,0.616-0.076,1.231-0.076,1.847h-34.862
		c0.923,8.696,7.542,14.391,16.315,14.391c6.31,0,11.082-2.924,13.313-7.003l3.387,2.001c-3.156,5.233-9.159,8.696-16.777,8.696
		c-11.852,0-20.24-8.465-20.24-20.086c0-11.313,8.157-20.086,19.932-20.086C605.475,67.761,612.785,77.458,612.785,88.001
		 M577.847,86.077h30.937c-0.847-9.389-7.465-14.622-15.007-14.622C585.004,71.455,578.616,77.535,577.847,86.077"/>
	<rect x="635.205" y="68.607" clip-path="url(#SVGID_2_)" fill="#292929" width="3.848" height="38.479"/>
	<path clip-path="url(#SVGID_2_)" fill="#292929" d="M289.361,163.01c0-11.39,8.619-20.086,20.24-20.086
		c7.542,0,14.006,3.848,16.777,9.851l-3.156,1.847c-2.231-4.848-7.465-8.004-13.621-8.004c-9.312,0-16.315,7.234-16.315,16.392
		c0,9.158,7.003,16.392,16.315,16.392c6.233,0,11.312-3.232,13.852-8.003l3.232,1.924c-3.078,5.925-9.542,9.773-17.084,9.773
		C297.98,183.096,289.361,174.4,289.361,163.01"/>
	<rect x="372.936" y="126.368" clip-path="url(#SVGID_2_)" fill="#292929" width="3.848" height="55.882"/>
	<rect x="423.035" y="143.77" clip-path="url(#SVGID_2_)" fill="#292929" width="3.848" height="38.479"/>
	<path clip-path="url(#SVGID_2_)" fill="#292929" d="M505.688,158.315v23.934h-3.925v-23.934c0-7.08-4.079-11.697-11.313-11.697
		c-7.542,0-13.467,4.925-13.467,15.314v20.317h-3.848V143.77h3.848v7.311c2.924-5.695,7.849-8.157,13.775-8.157
		C499.915,142.924,505.688,149.003,505.688,158.315"/>
	<rect x="551.938" y="143.77" clip-path="url(#SVGID_2_)" fill="#292929" width="3.848" height="38.479"/>
	<path clip-path="url(#SVGID_2_)" fill="#292929" d="M602.037,163.01c0-11.39,8.619-20.086,20.24-20.086
		c7.542,0,14.006,3.848,16.777,9.851l-3.156,1.846c-2.232-4.848-7.464-8.003-13.621-8.003c-9.312,0-16.315,7.234-16.315,16.392
		c0,9.158,7.003,16.392,16.315,16.392c6.233,0,11.312-3.232,13.852-8.004l3.232,1.924c-3.078,5.926-9.542,9.773-17.084,9.773
		C610.656,183.095,602.037,174.4,602.037,163.01"/>
</g>
</svg>
