<?xml version="1.0" encoding="utf-8"?>
<!-- Generator: Adobe Illustrator 17.0.0, SVG Export Plug-In . SVG Version: 6.00 Build 0)  -->
<!DOCTYPE svg PUBLIC "-//W3C//DTD SVG 1.1//EN" "http://www.w3.org/Graphics/SVG/1.1/DTD/svg11.dtd">
<svg version="1.1" id="Слой_1" xmlns="http://www.w3.org/2000/svg" xmlns:xlink="http://www.w3.org/1999/xlink" x="0px" y="0px"
	 width="33.684px" height="34.016px" viewBox="0 0 33.684 34.016" enable-background="new 0 0 33.684 34.016" xml:space="preserve">
<g>
	<path fill="#292929" d="M17.008,0C7.613,0,0,7.615,0,17.008c0,9.395,7.613,17.008,17.008,17.008
		c9.393,0,17.008-7.613,17.008-17.008C34.016,7.615,26.4,0,17.008,0z M27.059,19.279c-0.004,0.014-0.008,0.025-0.008,0.041
		c-0.012,0.452-0.016,0.905-0.035,1.357c-0.019,0.419-0.045,0.84-0.086,1.259c-0.045,0.487-0.158,0.961-0.314,1.425
		c-0.346,1.027-0.957,1.86-1.82,2.511c-0.643,0.482-1.373,0.768-2.15,0.942c-0.443,0.099-0.891,0.155-1.342,0.172
		c-0.736,0.028-1.471,0.045-2.207,0.063c-0.254,0.008-0.51,0.007-0.766,0.006c-1.213-0.002-2.424-0.002-3.637-0.01
		c-0.539-0.004-1.076-0.023-1.613-0.041c-0.5-0.015-0.998-0.056-1.492-0.147c-0.617-0.113-1.215-0.301-1.766-0.605
		c-1.07-0.592-1.846-1.451-2.309-2.587c-0.295-0.722-0.438-1.476-0.48-2.25C7,20.817,6.99,20.22,6.969,19.624
		c-0.004-0.077-0.008-0.154-0.012-0.229c0-1.593,0-3.184,0-4.775c0.004-0.014,0.008-0.025,0.01-0.041
		c0.006-0.33,0.01-0.66,0.021-0.99c0.016-0.508,0.031-1.017,0.094-1.523c0.064-0.533,0.18-1.056,0.369-1.56
		c0.498-1.32,1.383-2.286,2.66-2.888c0.785-0.372,1.625-0.537,2.488-0.585C13.193,7,13.791,6.99,14.387,6.968
		c0.076-0.003,0.156-0.007,0.232-0.011c1.592,0,3.184,0,4.775,0c0.014,0.003,0.025,0.008,0.041,0.008
		c0.422,0.011,0.848,0.02,1.273,0.032c0.439,0.015,0.883,0.036,1.322,0.094c0.523,0.069,1.035,0.188,1.531,0.381
		c1.363,0.533,2.338,1.475,2.912,2.819c0.316,0.736,0.463,1.513,0.504,2.308c0.035,0.694,0.047,1.39,0.07,2.086
		c0.002,0.019,0.006,0.034,0.01,0.051C27.059,16.251,27.059,17.766,27.059,19.279z"/>
	<path fill="#292929" d="M17.012,13.66c-1.832-0.006-3.32,1.47-3.354,3.288c-0.031,1.867,1.469,3.401,3.332,3.407
		c1.857,0.006,3.365-1.491,3.365-3.337C20.355,15.161,18.863,13.66,17.012,13.66z"/>
	<path fill="#292929" d="M25.213,13.653c-0.019-0.438-0.041-0.876-0.078-1.314c-0.037-0.44-0.139-0.872-0.305-1.284
		c-0.315-0.793-0.855-1.381-1.619-1.76c-0.535-0.268-1.113-0.392-1.705-0.437c-0.51-0.037-1.02-0.056-1.531-0.073
		c-0.461-0.013-0.922-0.012-1.381-0.014c-0.65-0.002-1.301-0.004-1.949,0c-1.006,0.007-2.014,0.012-3.019,0.031
		c-0.434,0.006-0.865,0.04-1.297,0.077c-0.406,0.036-0.805,0.127-1.188,0.271c-0.945,0.358-1.605,1.007-1.973,1.95
		c-0.207,0.53-0.301,1.088-0.326,1.652c-0.033,0.729-0.053,1.457-0.064,2.186c-0.012,0.689-0.002,1.378-0.002,2.066
		c-0.006,0-0.008,0.001-0.012,0.001c0.01,1.041,0.016,2.082,0.031,3.125c0.01,0.521,0.025,1.042,0.086,1.56
		c0.041,0.374,0.115,0.739,0.24,1.092c0.352,1.002,1.021,1.696,2.016,2.073c0.529,0.202,1.08,0.284,1.641,0.317
		c0.779,0.046,1.559,0.063,2.336,0.064c0.686,0.002,1.369,0.003,2.055,0.002c0.719-0.002,1.438,0,2.156-0.009
		c0.473-0.004,0.945-0.021,1.42-0.035c0.436-0.012,0.871-0.037,1.303-0.115c0.451-0.08,0.887-0.206,1.285-0.428
		c0.733-0.405,1.242-1.002,1.533-1.787c0.193-0.525,0.283-1.071,0.311-1.625c0.031-0.672,0.049-1.342,0.064-2.013
		c0.008-0.321,0.004-0.64,0.004-0.961c-0.002-1.189-0.004-2.382-0.008-3.573C25.234,14.349,25.23,14.001,25.213,13.653z
		 M16.955,22.168c-2.85-0.025-5.164-2.379-5.109-5.264c0.055-2.798,2.35-5.065,5.164-5.058c2.832-0.009,5.184,2.312,5.16,5.207
		C22.144,19.888,19.824,22.195,16.955,22.168z M22.369,12.851c-0.664,0.002-1.205-0.54-1.205-1.21c0-0.666,0.547-1.212,1.211-1.206
		c0.67,0.005,1.203,0.542,1.203,1.211C23.578,12.314,23.043,12.847,22.369,12.851z"/>
</g>
</svg>
