<svg xmlns="http://www.w3.org/2000/svg" xmlns:xlink="http://www.w3.org/1999/xlink" width="639.361" height="250.857"><defs><path id="a" d="M0 0h639.361v250.857H0z"/></defs><clipPath id="b"><use xlink:href="#a" overflow="visible"/></clipPath><path clip-path="url(#b)" fill="#292929" d="M201.189 125.428c30.159-22.927 49.669-59.172 49.669-99.897 0-14.1-11.432-25.532-25.532-25.532s-25.532 11.432-25.532 25.532c0 41.003-33.361 74.365-74.365 74.365-41.003 0-74.365-33.362-74.365-74.365 0-14.1-11.432-25.532-25.532-25.532S0 11.431 0 25.531c0 40.725 19.51 76.97 49.669 99.897C19.51 148.355 0 184.6 0 225.324c0 14.101 11.432 25.533 25.532 25.533s25.532-11.432 25.532-25.533c0-41.002 33.362-74.364 74.365-74.364 41.004 0 74.365 33.362 74.365 74.364 0 14.101 11.432 25.533 25.532 25.533s25.532-11.432 25.532-25.533c0-40.724-19.51-76.969-49.669-99.896m112.414-18.342l-20.394-18.932v18.932h-3.848V68.607h3.848v17.47l19.47-17.47h5.387l-20.701 18.47 21.471 20.009zm60.284-23.934v23.934h-3.925V83.152c0-7.08-4.079-11.698-11.312-11.698-7.543 0-13.468 4.926-13.468 15.315v20.317h-3.848V51.204h3.848v24.714c2.924-5.695 7.849-8.158 13.775-8.158 9.158 0 14.93 6.08 14.93 15.392m22.496 4.695c0-11.39 9.004-20.086 20.24-20.086 11.159 0 20.163 8.696 20.163 20.086 0 11.39-9.004 20.086-20.163 20.086-11.236 0-20.24-8.696-20.24-20.086m36.478 0c0-9.158-7.08-16.392-16.238-16.392s-16.315 7.234-16.315 16.392 7.157 16.392 16.315 16.392c9.158 0 16.238-7.234 16.238-16.392m66.747 0c0 11.39-8.927 20.086-19.932 20.086-7.465 0-13.391-3.848-16.546-9.773v8.926h-3.848V51.204h3.848v26.33c3.155-5.925 9.081-9.773 16.546-9.773 11.005 0 19.932 8.696 19.932 20.086m-3.848 0c0-9.158-7.157-16.392-16.315-16.392-9.158 0-16.315 7.234-16.315 16.392s7.157 16.392 16.315 16.392c9.158 0 16.315-7.234 16.315-16.392m55.589 15.468v3.771h-29.244v-2.54l23.088-32.168h-22.318v-3.771h27.705v2.54l-23.011 32.168zm61.436-15.314c0 .616-.076 1.231-.076 1.847h-34.862c.923 8.696 7.542 14.391 16.315 14.391 6.31 0 11.082-2.924 13.313-7.003l3.387 2.001c-3.156 5.233-9.159 8.696-16.777 8.696-11.852 0-20.24-8.465-20.24-20.086 0-11.313 8.157-20.086 19.932-20.086 11.698 0 19.008 9.697 19.008 20.24m-34.938-1.924h30.937c-.847-9.389-7.465-14.622-15.007-14.622-8.773 0-15.161 6.08-15.93 14.622m57.358-17.47h3.848v38.479h-3.848zM289.361 163.01c0-11.39 8.619-20.086 20.24-20.086 7.542 0 14.006 3.848 16.777 9.851l-3.156 1.847c-2.231-4.848-7.465-8.004-13.621-8.004-9.312 0-16.315 7.234-16.315 16.392s7.003 16.392 16.315 16.392c6.233 0 11.312-3.232 13.852-8.003l3.232 1.924c-3.078 5.925-9.542 9.773-17.084 9.773-11.621 0-20.24-8.696-20.24-20.086m83.575-36.642h3.848v55.882h-3.848zm50.099 17.402h3.848v38.479h-3.848zm82.653 14.545v23.934h-3.925v-23.934c0-7.08-4.079-11.697-11.313-11.697-7.542 0-13.467 4.925-13.467 15.314v20.317h-3.848V143.77h3.848v7.311c2.924-5.695 7.849-8.157 13.775-8.157 9.157 0 14.93 6.079 14.93 15.391m46.25-14.545h3.848v38.479h-3.848zm50.099 19.24c0-11.39 8.619-20.086 20.24-20.086 7.542 0 14.006 3.848 16.777 9.851l-3.156 1.846c-2.232-4.848-7.464-8.003-13.621-8.003-9.312 0-16.315 7.234-16.315 16.392s7.003 16.392 16.315 16.392c6.233 0 11.312-3.232 13.852-8.004l3.232 1.924c-3.078 5.926-9.542 9.773-17.084 9.773-11.621 0-20.24-8.695-20.24-20.085"/></svg>