<svg xmlns="http://www.w3.org/2000/svg" width="33.684" height="34.016"><g fill="#292929"><path d="M17.008 0C7.613 0 0 7.615 0 17.008c0 9.395 7.613 17.008 17.008 17.008 9.393 0 17.008-7.613 17.008-17.008C34.016 7.615 26.4 0 17.008 0zm10.051 19.279c-.004.014-.008.025-.008.041-.012.452-.016.905-.035 1.357-.019.419-.045.84-.086 1.259a6.283 6.283 0 01-.314 1.425 5.135 5.135 0 01-1.82 2.511c-.643.482-1.373.768-2.15.942a7.425 7.425 0 01-1.342.172c-.736.028-1.471.045-2.207.063-.254.008-.51.007-.766.006-1.213-.002-2.424-.002-3.637-.01-.539-.004-1.076-.023-1.613-.041a9.844 9.844 0 01-1.492-.147 5.786 5.786 0 01-1.766-.605c-1.07-.592-1.846-1.451-2.309-2.587-.295-.722-.438-1.476-.48-2.25-.034-.598-.044-1.195-.065-1.791l-.012-.229V14.62c.004-.014.008-.025.01-.041.006-.33.01-.66.021-.99.016-.508.031-1.017.094-1.523a6.7 6.7 0 01.369-1.56c.498-1.32 1.383-2.286 2.66-2.888.785-.372 1.625-.537 2.488-.585.594-.033 1.192-.043 1.788-.065l.232-.011h4.775c.014.003.025.008.041.008.422.011.848.02 1.273.032.439.015.883.036 1.322.094a6.565 6.565 0 011.531.381c1.363.533 2.338 1.475 2.912 2.819.316.736.463 1.513.504 2.308.035.694.047 1.39.07 2.086.002.019.006.034.01.051.002 1.515.002 3.03.002 4.543z"/><path d="M17.012 13.66a3.351 3.351 0 00-3.354 3.288 3.349 3.349 0 003.332 3.407 3.346 3.346 0 003.365-3.337 3.346 3.346 0 00-3.343-3.358z"/><path d="M25.213 13.653a32.147 32.147 0 00-.078-1.314 4.424 4.424 0 00-.305-1.284 3.236 3.236 0 00-1.619-1.76c-.535-.268-1.113-.392-1.705-.437a39.11 39.11 0 00-1.531-.073c-.461-.013-.922-.012-1.381-.014-.65-.002-1.301-.004-1.949 0-1.006.007-2.014.012-3.019.031-.434.006-.865.04-1.297.077a4.503 4.503 0 00-1.188.271c-.945.358-1.605 1.007-1.973 1.95a5.14 5.14 0 00-.326 1.652 72.5 72.5 0 00-.064 2.186c-.012.689-.002 1.378-.002 2.066l-.012.001c.01 1.041.016 2.082.031 3.125.01.521.025 1.042.086 1.56.041.374.115.739.24 1.092.352 1.002 1.021 1.696 2.016 2.073.529.202 1.08.284 1.641.317.779.046 1.559.063 2.336.064.686.002 1.369.003 2.055.002.719-.002 1.438 0 2.156-.009.473-.004.945-.021 1.42-.035a8.641 8.641 0 001.303-.115c.451-.08.887-.206 1.285-.428a3.28 3.28 0 001.533-1.787 5.479 5.479 0 00.311-1.625 84.72 84.72 0 00.064-2.013c.008-.321.004-.64.004-.961-.002-1.189-.004-2.382-.008-3.573a25.94 25.94 0 00-.024-1.039zm-8.258 8.515a5.164 5.164 0 01-5.109-5.264c.055-2.798 2.35-5.065 5.164-5.058 2.832-.009 5.184 2.312 5.16 5.207a5.166 5.166 0 01-5.215 5.115zm5.414-9.317a1.208 1.208 0 11.006-2.416 1.208 1.208 0 01-.006 2.416z"/></g></svg>