<svg xmlns="http://www.w3.org/2000/svg" xmlns:xlink="http://www.w3.org/1999/xlink" width="33.217" height="33.217"><path fill="#292929" d="M14.342 19.889l5.568-3.271-5.568-3.272z"/><defs><path id="a" d="M0 0h33.217v33.217H0z"/></defs><clipPath id="b"><use xlink:href="#a" overflow="visible"/></clipPath><path clip-path="url(#b)" fill="#292929" d="M16.608.001C7.435.001 0 7.436 0 16.609s7.435 16.608 16.608 16.608 16.608-7.435 16.608-16.608S25.781.001 16.608.001m8.504 19.65c0 2.93-2.932 2.93-2.932 2.93H11.034c-2.93 0-2.93-2.93-2.93-2.93v-6.082c0-2.932 2.93-2.932 2.93-2.932H22.18c2.932 0 2.932 2.932 2.932 2.932v6.082z"/></svg>