<?xml version="1.0" encoding="utf-8"?>
<!-- Generator: Adobe Illustrator 19.0.0, SVG Export Plug-In . SVG Version: 6.00 Build 0)  -->
<svg version="1.1" id="Layer_1" xmlns="http://www.w3.org/2000/svg" xmlns:xlink="http://www.w3.org/1999/xlink" x="0px" y="0px"
	 viewBox="115 99.7 841.9 595.3" style="enable-background:new 115 99.7 841.9 595.3;" xml:space="preserve">
<style type="text/css">
	.st0{fill:#39276B;}
	.st1{enable-background:new    ;}
</style>
<g>
	<polygon class="st0" points="476.2,234.4 501.4,106.8 529.3,242.2 816.7,254.6 537.1,303.1 572.8,399.6 486.8,325.5 370.5,390.9 
		452.4,290.7 343.1,221.6 	"/>
	<path class="st0" d="M433.7,406c-7.3-7.3-11.4-8.7-15.6-10.5c-0.9-0.5-6.4-0.9-6.4-1.8c0-0.5,0.9-0.5,3.2-0.9
		c2.3,0,4.1-0.5,5.5-0.5c16-1.4,35.2-1.8,60.4,0.5c12.4,1.4,31.6,5.9,53.1,16.9c14.2,7.3,16.9,11,51.3,35.2
		c21.1,15.1,32,22.4,40.3,27.5c19.2,11.4,44.4,26.5,78.3,32.5c0,0,1.8,0.5,47.1,5l0,0c-21.5,5.9-51.7,11.9-85.1,9.6
		c-16.5-0.9-29.7-1.8-45.8-8.7c-11.9-5-14.6-8.7-28.4-13.7c-5-1.8-18.8-6.4-37.1-7.3c-7.3-0.5-23.3-1.4-42.1,4.1
		c-15.6,4.6-20.6,9.6-33.4,16c-15.1,6.9-30.7,8.7-61.3,11.4c-48.1,4.6-84.7,2.7-94.3,1.8c-23.3-1.4-43.9-4.1-61.3-6.9
		c16.9-0.5,108-5,153.8-39.8c8.7-6.9,23.3-17.8,26.1-36.6C444.7,425.3,437.3,412,433.7,406z"/>
	<path class="st0" d="M222.2,489.3c7.8,0.5,18.8,0.5,32-0.9c13.3-1.4,25.6-2.7,39.8-9.2c8.7-3.7,24.3-10.5,34.3-24.7
		c5.9-8.2,12.8-23.3,12.8-27c0-0.5,0-1.8,0.9-2.7c0.9-0.9,2.3-1.4,3.7-1.4c33.9,17.4,58.1,29.3,60.4,30.7c1.4,0.5,1.8,0.9,3.2,1.8
		c0.9,0.9,1.8,1.4,1.8,2.3c0.5,1.4-0.9,2.7-1.4,3.7c-3.2,4.1-5,5.9-5.9,6.9c-2.7,2.3-5.5,4.6-7.8,5.9c-4.1,2.7-7.8,4.6-11,5.9
		c-5.5,2.7-8.2,4.1-9.6,3.7c-6.9-2.7-21.5-16.9-21.5-16.9s-1.4,5.9-11,11.9c-14.2,9.2-52.6,15.6-77.3,15.1
		C253.8,494.8,239.2,493.5,222.2,489.3z"/>
	<path class="st0" d="M628.2,457.3c8.7-9.2,17.4-18.3,26.1-27.5c12.8,5,32.9,14.2,55.8,28.4c27.5,16.9,36.2,27.5,57.2,35.2
		c13.7,5,35.2,10.1,65.9,5.5c-29.3,7.8-52.6,5.9-65.9,3.7c-23.3-4.1-41.2-12.8-66.4-25.6c-16-8.2-28.8-16-37.5-21.5
		c0,0-1.8,4.1-11,11c-4.1,3.2-5.9,5-7.8,4.6c-0.5,0-0.9-0.5-5-3.7c-3.2-2.3-4.6-3.2-5.5-4.1C632.7,461.4,630.5,459.6,628.2,457.3z"
		/>
	<g class="st1">
		<path class="st0" d="M245.1,574l35.7,90.2c0.9,1.8,1.4,3.2,1.8,5c0.5,1.4,0.5,2.7,0.5,4.1c0,4.1-1.4,6.9-4.6,9.6
			c-3.2,2.3-6.9,3.7-11.4,3.7c-8.2,0-13.7-4.6-16.9-13.7l-5-14.6h-49.9l-5.9,15.6c-3.2,8.2-8.2,12.4-15.6,12.4
			c-4.6,0-8.2-1.4-11-3.7c-2.7-2.3-4.1-5.5-4.1-9.6c0-3.2,0.5-5.9,1.4-8.2l36.6-88.3c5-12.4,13.3-18.3,24.7-18.3
			C232.3,557.5,240.5,563,245.1,574z M236,632.6l-15.6-43.9H220l-16,43.9H236z"/>
		<path class="st0" d="M303.2,680.6c-2.7-2.7-4.6-7.3-4.6-14.2V579c0-6.9,1.4-11.9,4.1-15.1c2.7-3.2,8.7-5,17.8-5h26.1
			c14.6,0,26.1,2.7,35.2,8.2c9.2,5.5,13.3,13.3,13.3,22.9c0,6.4-0.9,11.4-3.2,16.5c-2.3,4.6-6.9,8.7-13.3,11.4v0.5
			c8.2,2.3,14.2,5.9,17.8,10.1c3.7,4.1,5.5,10.5,5.5,18.3c0,11.4-4.1,20.6-12.8,27.5c-8.7,6.9-21.1,10.5-37.5,10.5h-31.6
			C311.9,684.7,306.4,683.4,303.2,680.6z M344.9,608.3c7.3,0,11.9-0.9,14.6-2.7s4.1-5,4.1-9.6c0-8.2-6.4-11.9-18.8-11.9h-13.7v24.7
			h13.7V608.3z M346.7,660c8.2,0,14.2-1.4,17.4-3.7c3.2-2.3,4.6-5.9,4.6-10.5c0-5.5-1.4-9.6-4.6-11.9c-3.2-2.3-9.2-3.7-17.8-3.7
			h-15.6v29.3h16V660z"/>
		<path class="st0" d="M440.1,686.1c-10.5,0-16-6.9-16-20.1v-86.5c0-6.9,1.4-11.9,4.1-15.1c2.7-3.2,8.7-5,17.8-5h28.8
			c16,0,28.8,3.7,38,11.4c9.2,7.8,12.8,18.3,12.8,31.1c0,13.3-3.2,23.3-11.9,31.1c-8.7,7.8-20.6,11.4-36.2,11.4h-21.5V666
			C456.1,679.3,450.6,686.1,440.1,686.1z M491.8,601.9c0-11-7.3-16.5-22-16.5h-13.7v33h13.7C484.5,618.4,491.8,612.9,491.8,601.9z"
			/>
		<path class="st0" d="M875.3,574l35.7,90.2c0.9,1.8,1.4,3.2,1.8,5c0.5,1.4,0.5,2.7,0.5,4.1c0,4.1-1.4,6.9-4.6,9.6
			c-3.2,2.3-6.9,3.7-11.4,3.7c-8.2,0-13.7-4.6-16.9-13.7l-5-14.6h-49.9l-5.5,15.6c-3.2,8.2-8.2,12.4-15.6,12.4
			c-4.6,0-8.2-1.4-11-3.7s-4.1-5.5-4.1-9.6c0-3.2,0.5-5.9,1.4-8.2l36.6-88.3c5-12.4,13.3-18.3,24.7-18.3
			C862.9,557.5,871.2,563,875.3,574z M866.6,632.6L851,588.6h-0.5l-16,43.9H866.6z"/>
		<path class="st0" d="M703.7,686.1c-10.5,0-16-6.9-16-20.1v-86.5c0-6.9,1.4-11.9,4.1-15.1c2.7-3.2,8.7-5,17.8-5h28.8
			c16,0,28.8,3.7,38,11.4c9.2,7.8,12.8,18.3,12.8,31.1c0,13.3-3.2,23.3-11.9,31.1c-8.7,7.8-20.6,11.4-36.2,11.4h-21.5V666
			C719.7,679.3,714.7,686.1,703.7,686.1z M755.8,601.9c0-11-7.3-16.5-22.4-16.5h-13.7v33h13.7C748.5,618.4,755.8,612.9,755.8,601.9z
			"/>
	</g>
	<path class="st0" d="M603.9,557.1c-36.2,0-65.4,29.3-65.4,65.4c0,36.2,29.3,65.4,65.4,65.4c36.2,0,65.4-29.3,65.4-65.4
		C669.4,586.4,640.1,557.1,603.9,557.1z M603.9,657.7c-19.7,0-36.2-16-36.2-36.2c0-19.7,16-36.2,36.2-36.2c20.1,0,36.2,16,36.2,36.2
		S623.6,657.7,603.9,657.7z"/>
</g>
</svg>
